<svg xmlns="http://www.w3.org/2000/svg" viewBox="0 0 127.57 84.14"><defs><style>.cls-1{fill:#0b9a39;stroke:#1d1d1b;stroke-miterlimit:10;stroke-width:2px;}</style></defs><g id="Calque_1" data-name="Calque 1"><path d="M101.23,385.62V372.46a.64.64,0,0,0-.64-.64H90.49a.63.63,0,0,1-.64-.63L90,331.74a.64.64,0,0,1,1.1-.43l21.3,23.15a.65.65,0,0,0,1,0l19.92-24a.64.64,0,0,1,1.13.39l.13,6.59a.64.64,0,0,0,.65.62l16.42-.38a.63.63,0,0,0,.62-.64l-.35-28.26a.64.64,0,0,0-.64-.63H135.05a.64.64,0,0,0-.45.19l-21.48,21.85a.64.64,0,0,1-.9,0L90.13,308.31a.63.63,0,0,0-.44-.19H62.42a.63.63,0,0,0-.58.39L29.7,385.38a.64.64,0,0,0,.59.88H46.7a.65.65,0,0,0,.59-.39l22.89-54.12a.64.64,0,0,1,1.22.24l.73,53.6a.63.63,0,0,0,.63.62l27.83.06A.64.64,0,0,0,101.23,385.62Z" transform="translate(-24.65 -302.12)"/><path class="cls-1" d="M97.23,380.62V367.46a.64.64,0,0,0-.64-.64H86.49a.63.63,0,0,1-.64-.63L86,326.74a.64.64,0,0,1,1.1-.43l21.3,23.15a.65.65,0,0,0,1,0l19.92-24a.64.64,0,0,1,1.13.39l.13,6.59a.64.64,0,0,0,.65.62l16.42-.38a.63.63,0,0,0,.62-.64l-.35-28.26a.64.64,0,0,0-.64-.63H131.05a.64.64,0,0,0-.45.19l-21.48,21.85a.64.64,0,0,1-.9,0L86.13,303.31a.63.63,0,0,0-.44-.19H58.42a.63.63,0,0,0-.58.39L25.7,380.38a.64.64,0,0,0,.59.88H42.7a.65.65,0,0,0,.59-.39l22.89-54.12a.64.64,0,0,1,1.22.24l.73,53.6a.63.63,0,0,0,.63.62l27.83.06A.64.64,0,0,0,97.23,380.62Z" transform="translate(-24.65 -302.12)"/></g></svg>