<svg xmlns="http://www.w3.org/2000/svg" viewBox="0 0 127.57 84.14"><defs><style>.cls-1{fill:#fff;}.cls-2{fill:#0b9a39;stroke:#fff;stroke-miterlimit:10;stroke-width:2px;}</style></defs><g id="Calque_1" data-name="Calque 1"><path class="cls-1" d="M301.06,383.12V370a.64.64,0,0,0-.63-.64H290.32a.63.63,0,0,1-.63-.63l.14-39.45a.63.63,0,0,1,1.1-.43L312.23,352a.63.63,0,0,0,.95,0l19.93-24a.63.63,0,0,1,1.12.39l.14,6.59a.64.64,0,0,0,.65.62l16.42-.38a.63.63,0,0,0,.62-.64l-.36-28.26a.63.63,0,0,0-.63-.63H334.89a.66.66,0,0,0-.46.19L313,327.66a.64.64,0,0,1-.9,0L290,305.81a.63.63,0,0,0-.44-.19H262.26a.65.65,0,0,0-.59.39l-32.13,76.87a.64.64,0,0,0,.59.88h16.41a.64.64,0,0,0,.58-.39L270,329.24a.64.64,0,0,1,1.22.24l.73,53.6a.63.63,0,0,0,.63.62l27.83.06A.64.64,0,0,0,301.06,383.12Z" transform="translate(-224.49 -299.62)"/><path class="cls-2" d="M297.06,378.12V365a.64.64,0,0,0-.63-.64H286.32a.63.63,0,0,1-.63-.63l.14-39.45a.63.63,0,0,1,1.1-.43L308.23,347a.63.63,0,0,0,.95,0l19.93-24a.63.63,0,0,1,1.12.39l.14,6.59a.64.64,0,0,0,.65.62l16.42-.38a.63.63,0,0,0,.62-.64l-.36-28.26a.63.63,0,0,0-.63-.63H330.89a.66.66,0,0,0-.46.19L309,322.66a.64.64,0,0,1-.9,0L286,300.81a.63.63,0,0,0-.44-.19H258.26a.65.65,0,0,0-.59.39l-32.13,76.87a.64.64,0,0,0,.59.88h16.41a.64.64,0,0,0,.58-.39L266,324.24a.64.64,0,0,1,1.22.24l.73,53.6a.63.63,0,0,0,.63.62l27.83.06A.64.64,0,0,0,297.06,378.12Z" transform="translate(-224.49 -299.62)"/></g></svg>